<?xml version="1.0" standalone="no"?>
<!DOCTYPE svg PUBLIC "-//W3C//DTD SVG 20010904//EN"
 "http://www.w3.org/TR/2001/REC-SVG-20010904/DTD/svg10.dtd">
<svg version="1.0" xmlns="http://www.w3.org/2000/svg"
 width="501.000000pt" height="501.000000pt" viewBox="0 0 501.000000 501.000000"
 preserveAspectRatio="xMidYMid meet">
<metadata>
Created by potrace 1.14, written by Peter Selinger 2001-2017
</metadata>
<g transform="translate(0.000000,501.000000) scale(0.100000,-0.100000)"
fill="#000000" stroke="none">
<path d="M2065 4223 c-142 -30 -287 -101 -373 -182 -21 -20 -44 -31 -62 -31
-55 0 -170 -30 -207 -54 -95 -60 -167 -173 -167 -261 1 -27 6 -96 13 -152 8
-57 10 -127 7 -157 l-7 -54 -65 -28 c-35 -15 -69 -33 -75 -41 -6 -7 -22 -13
-35 -13 -13 0 -33 -9 -45 -21 -20 -20 -21 -28 -17 -208 4 -167 7 -194 31 -267
30 -90 87 -185 137 -227 42 -36 111 -70 180 -90 30 -9 65 -23 78 -32 l22 -16
0 -462 0 -463 33 -69 c63 -131 267 -378 401 -484 95 -76 174 -103 319 -109
136 -5 213 7 306 49 52 24 87 53 195 161 148 149 242 269 292 373 l34 69 0
467 0 467 23 14 c12 8 47 23 77 32 147 46 228 111 285 229 60 125 85 293 71
468 -8 96 -15 113 -48 114 -13 1 -39 11 -58 23 -19 12 -59 32 -89 44 l-53 23
6 135 c3 74 8 165 12 201 6 64 4 70 -31 138 -63 119 -141 173 -280 192 -84 12
-93 16 -140 56 -89 77 -249 148 -389 172 -85 15 -298 12 -381 -6z m117 -21
c-57 -42 -77 -61 -70 -67 6 -7 18 0 97 63 20 15 42 22 74 22 46 0 49 -2 130
-72 56 -49 54 -29 -3 24 l-54 50 44 -6 c124 -20 261 -67 343 -118 26 -17 47
-32 47 -34 0 -2 -235 -4 -522 -4 l-523 0 30 21 c105 71 293 136 400 138 l30 0
-23 -17z m500 -183 c-27 -9 -78 -20 -113 -23 -79 -8 -149 -26 -149 -38 0 -4
-18 -28 -39 -51 -45 -49 -81 -131 -81 -185 0 -20 9 -61 20 -90 25 -66 25 -118
-1 -227 -14 -60 -18 -101 -13 -129 9 -57 42 -142 60 -157 25 -21 74 -126 80
-172 5 -39 2 -46 -35 -87 -22 -25 -43 -53 -46 -62 -4 -10 -15 -18 -26 -18 -11
0 -28 -5 -38 -12 -14 -8 -29 -8 -65 3 -25 7 -46 16 -46 20 0 3 -22 32 -50 63
-27 31 -50 63 -50 71 0 29 43 127 77 178 43 63 73 146 73 201 0 22 -10 85 -22
138 l-22 98 27 83 c15 46 27 93 27 105 0 41 -49 144 -88 186 -22 24 -41 49
-44 57 -4 11 -32 14 -129 16 -103 2 -135 6 -188 26 l-63 24 496 -1 c477 0 495
-1 448 -17z m173 -9 c14 -15 31 -20 69 -20 154 0 287 -88 331 -219 13 -41 14
-67 5 -187 -13 -160 -7 -269 22 -404 24 -115 93 -258 114 -238 4 4 1 14 -5 22
-10 12 -8 17 8 26 26 13 54 106 55 183 1 57 12 71 35 43 20 -24 15 -307 -8
-401 -31 -127 -88 -233 -152 -284 -31 -24 -117 -64 -188 -87 -88 -27 -184
-132 -260 -282 -21 -41 -23 -43 -44 -29 -12 7 -40 48 -61 91 l-40 76 13 62
c15 75 51 147 102 208 56 66 51 99 -21 173 -44 43 -61 46 -88 12 -60 -76 -69
-297 -18 -450 30 -89 71 -158 116 -198 16 -15 36 -40 45 -57 19 -37 30 -118
21 -154 -5 -22 -12 -26 -43 -26 -48 0 -93 -31 -133 -93 -37 -56 -54 -66 -78
-44 -10 9 -48 30 -86 48 -87 41 -182 50 -250 24 -42 -16 -48 -16 -86 -1 -83
33 -216 9 -317 -58 -59 -39 -57 -39 -107 42 -32 51 -79 82 -124 82 -41 0 -54
29 -45 98 7 59 32 108 73 147 71 66 121 184 141 330 19 146 -19 317 -75 331
-29 7 -46 -1 -46 -22 0 -8 -4 -14 -9 -14 -4 0 -20 -12 -35 -26 -40 -41 -37
-100 8 -143 41 -40 94 -151 105 -222 8 -47 5 -57 -25 -118 -18 -37 -44 -77
-58 -90 l-24 -23 -37 64 c-98 168 -161 232 -255 263 -144 47 -201 86 -257 173
-66 103 -104 258 -102 422 1 131 10 184 32 188 14 3 17 -4 17 -47 0 -74 19
-148 46 -180 16 -20 22 -35 17 -48 -15 -41 29 11 56 66 65 130 85 278 76 537
-8 217 -3 242 70 323 66 73 154 111 260 111 30 0 60 7 74 16 21 15 28 14 104
-12 69 -23 99 -28 192 -28 l110 -1 38 -40 c50 -53 97 -149 97 -200 0 -22 -9
-64 -20 -93 -25 -66 -25 -118 1 -228 13 -55 18 -101 14 -123 -11 -60 -35 -125
-55 -146 -30 -32 -90 -167 -90 -202 0 -24 12 -46 50 -89 52 -60 59 -74 36 -74
-16 0 -79 -67 -99 -107 -23 -44 -36 -100 -46 -208 -6 -62 -17 -118 -30 -147
-28 -62 -36 -189 -14 -231 21 -42 9 -89 -37 -142 -47 -54 -63 -82 -57 -98 2
-7 9 -1 17 13 7 14 27 43 44 65 18 22 42 56 54 76 l22 36 -25 47 c-17 31 -23
55 -19 72 7 29 9 29 45 4 15 -12 42 -25 58 -31 32 -11 159 -145 178 -188 6
-14 9 -38 6 -53 -3 -17 -1 -28 6 -28 6 0 11 17 11 39 0 33 10 50 68 120 54 65
83 90 139 121 39 21 74 36 77 33 13 -13 5 -56 -16 -93 l-23 -38 24 -44 c13
-24 36 -56 51 -73 14 -16 34 -43 44 -58 10 -16 20 -27 22 -24 7 7 -16 46 -51
87 -16 19 -39 54 -49 78 l-19 43 22 39 c18 33 20 46 13 74 -5 18 -7 45 -5 60
3 15 -6 53 -22 93 -19 47 -30 99 -36 165 -4 54 -13 115 -18 136 -14 51 -69
132 -103 151 -15 9 -28 19 -28 23 0 4 23 33 50 64 28 31 50 66 50 76 0 33 -51
150 -85 198 -35 48 -65 134 -65 185 0 18 9 75 20 128 21 102 20 130 -15 226
-20 57 -19 69 6 136 19 52 83 139 116 159 8 4 61 14 117 22 57 7 125 22 152
33 65 26 116 27 139 1z m-1589 -732 c-3 -18 -8 -52 -12 -74 -6 -39 -9 -42 -44
-48 -24 -4 -46 -15 -58 -31 -24 -30 -29 -25 -38 43 -5 38 -3 56 7 69 13 15
123 71 143 73 4 0 6 -15 2 -32z m2097 -4 c55 -28 67 -44 67 -88 0 -23 -3 -51
-6 -64 l-6 -22 -23 24 c-13 14 -39 28 -58 31 -41 8 -43 12 -53 95 l-7 61 27
-11 c14 -5 41 -17 59 -26z m-1143 -592 c0 -97 -33 -212 -60 -212 -5 0 -22 12
-39 26 -25 21 -31 33 -31 66 0 49 11 72 63 126 54 56 67 54 67 -6z m187 -4
c34 -35 63 -94 63 -128 0 -25 -51 -80 -74 -80 -35 0 -74 148 -60 227 7 38 20
35 71 -19z m-677 21 c0 -5 20 -44 45 -87 46 -78 55 -125 37 -190 -6 -19 -11
-13 -30 37 -13 34 -43 82 -68 110 -49 55 -55 84 -23 125 19 25 39 27 39 5z
m1130 -10 c20 -36 10 -70 -34 -124 -24 -30 -52 -76 -62 -102 -27 -75 -34 -73
-34 8 0 70 3 79 45 151 25 43 45 82 45 87 0 16 29 1 40 -20z m-1305 -502 c0
-67 -2 -208 -4 -314 l-3 -192 48 -76 c45 -71 88 -115 112 -115 5 0 28 -28 50
-62 41 -62 192 -222 192 -202 0 5 -27 36 -61 69 -55 55 -129 145 -129 158 0 3
26 -10 57 -29 63 -38 129 -64 242 -97 107 -30 321 -30 434 1 93 26 185 65 245
104 24 15 45 28 47 28 14 0 -50 -85 -112 -150 -40 -41 -73 -79 -73 -85 0 -18
159 156 191 209 20 33 44 57 68 69 20 10 46 32 57 50 12 18 35 54 53 82 l32
50 -6 315 -6 316 31 29 31 29 -3 -464 -3 -465 -33 -60 c-54 -99 -159 -233
-282 -356 -141 -143 -230 -205 -176 -121 14 20 45 84 69 142 63 151 83 187
142 260 35 44 72 76 113 100 75 43 83 62 10 23 -101 -54 -192 -166 -248 -307
-50 -127 -98 -222 -128 -254 -40 -42 -97 -56 -237 -57 -219 0 -248 20 -346
254 -86 206 -170 315 -286 375 -37 18 -43 20 -43 7 0 -5 12 -13 28 -19 46 -17
125 -82 168 -141 48 -66 68 -104 119 -226 20 -49 50 -114 66 -142 16 -29 27
-53 24 -53 -19 0 -103 66 -175 139 -135 135 -266 307 -310 404 -18 39 -20 71
-20 502 l1 460 27 -33 c26 -32 27 -37 27 -155z m545 9 c51 -46 90 -48 131 -7
16 16 29 40 29 53 0 46 17 51 24 8 8 -49 47 -90 85 -90 58 0 124 66 137 138 3
18 10 34 14 37 11 7 45 -94 41 -120 -3 -25 -39 -56 -100 -85 -30 -15 -70 -50
-116 -102 l-70 -80 -80 86 c-46 50 -95 92 -116 100 -46 19 -99 69 -99 94 0 10
10 43 22 72 l21 52 19 -60 c13 -44 29 -69 58 -96z m-425 -366 c51 0 69 -12
115 -81 l41 -60 -44 -52 c-25 -28 -52 -67 -61 -84 -28 -56 -53 -42 -127 72
l-39 60 0 115 1 115 38 -42 c32 -36 45 -43 76 -43z m1300 -150 c-14 -33 -85
-143 -99 -152 -22 -15 -36 -7 -62 35 -14 23 -44 61 -66 83 l-40 42 42 58 c56
78 65 84 122 84 38 0 50 4 58 21 7 11 19 28 28 37 16 16 17 11 22 -83 3 -58 1
-110 -5 -125z m-771 84 c35 -13 12 -19 -74 -19 -49 0 -90 1 -90 3 0 17 129 29
164 16z m295 -9 c7 -7 -22 -10 -80 -10 -83 0 -106 6 -76 19 19 9 146 1 156 -9z
m-404 -297 c44 -16 89 -33 100 -38 18 -8 18 -9 -5 -9 -36 -1 -154 33 -184 53
-30 19 -36 42 -8 31 9 -4 53 -21 97 -37z m470 32 c9 -15 -51 -47 -126 -65
-101 -25 -116 -13 -24 18 44 15 91 34 105 42 30 17 37 18 45 5z"/>
<path d="M1564 3914 c-43 -15 -123 -78 -113 -88 3 -3 30 10 59 29 30 19 69 40
87 46 18 6 33 15 33 20 0 12 -17 10 -66 -7z"/>
<path d="M2920 3923 c0 -11 180 -104 180 -94 0 13 -64 59 -112 81 -46 21 -68
25 -68 13z"/>
<path d="M1772 3849 c-80 -10 -203 -44 -252 -69 -52 -26 -106 -84 -137 -143
-32 -65 -23 -84 13 -26 l29 45 -3 -102 c-4 -119 8 -187 47 -270 50 -105 136
-161 206 -134 17 7 98 15 180 19 163 7 187 15 234 73 47 58 61 128 40 201 -6
22 -11 103 -12 180 -3 222 -16 237 -202 235 -44 0 -108 -4 -143 -9z m304 -365
c10 -53 -2 -144 -24 -173 -29 -41 -98 -71 -162 -71 -72 0 -84 8 -75 51 13 58
42 105 92 146 59 50 85 63 117 63 14 0 26 5 26 10 0 26 20 6 26 -26z"/>
<path d="M2502 3853 c-54 -7 -65 -41 -75 -238 -16 -312 -16 -308 18 -357 49
-69 93 -88 203 -88 86 0 92 -1 92 -20 0 -22 84 -165 155 -265 55 -78 127 -144
165 -152 21 -4 30 -11 30 -24 0 -11 -4 -19 -10 -19 -17 0 -11 -19 26 -78 43
-68 42 -67 50 -60 3 3 -11 31 -31 63 -28 44 -34 59 -25 70 21 25 8 58 -26 67
-44 11 -139 116 -209 230 -32 51 -71 112 -86 135 -16 23 -29 45 -29 48 0 8 62
-1 131 -17 41 -10 52 -9 85 9 51 26 109 110 137 198 17 55 22 94 22 182 l0
113 20 -35 c30 -52 51 -45 24 8 -54 106 -130 164 -264 200 -113 31 -290 44
-403 30z m-2 -342 c0 -5 17 -11 38 -14 76 -13 191 -143 192 -218 0 -32 -15
-39 -84 -39 -68 0 -133 33 -158 80 -18 35 -25 149 -12 184 6 17 24 22 24 7z"/>
<path d="M1380 3253 c1 -28 21 -59 75 -114 47 -49 105 -88 105 -71 0 4 -23 25
-50 45 -51 38 -110 109 -110 133 0 7 -4 16 -10 19 -5 3 -10 -2 -10 -12z"/>
<path d="M3135 3223 c-11 -20 -50 -63 -87 -96 -72 -65 -81 -83 -24 -48 45 28
124 116 132 148 10 37 0 36 -21 -4z"/>
<path d="M1734 3068 c-131 -213 -186 -281 -251 -310 -52 -23 -55 -28 -41 -66
11 -28 9 -35 -18 -74 -42 -59 -47 -68 -35 -68 5 0 28 30 51 66 37 58 40 68 26
76 -20 11 -21 38 -1 38 33 0 95 41 138 92 48 56 189 278 201 316 16 49 -16 18
-70 -70z"/>
<path d="M1130 2699 c0 -17 43 -74 83 -108 53 -47 46 -21 -15 54 -50 62 -68
77 -68 54z"/>
<path d="M3360 2663 c-19 -25 -43 -57 -54 -70 -30 -39 -11 -37 34 3 46 41 89
114 68 114 -7 -1 -29 -21 -48 -47z"/>
</g>
</svg>
